<?xml version="1.0"?>
<svg xmlns="http://www.w3.org/2000/svg" xmlns:xlink="http://www.w3.org/1999/xlink" xmlns:svgjs="http://svgjs.com/svgjs" version="1.1" width="512" height="512" x="0" y="0" viewBox="0 0 96 96" style="enable-background:new 0 0 512 512" xml:space="preserve" class=""><g><linearGradient xmlns="http://www.w3.org/2000/svg" id="New_Gradient_Swatch_1" gradientUnits="userSpaceOnUse" x1="22.856" x2="73.144" y1="62.746" y2="12.458"><stop stop-opacity="1" stop-color="#054153" offset="0"/><stop stop-opacity="1" stop-color="#00b050" offset="1"/></linearGradient><g xmlns="http://www.w3.org/2000/svg" id="_05-security" data-name="05-security"><g id="Flat"><path d="m90.828 13.171-12-12a4 4 0 0 0 -4.738-.686 25.414 25.414 0 0 1 -24.026.089 4 4 0 0 0 -4.128 0 25.537 25.537 0 0 1 -24.026-.089 4 4 0 0 0 -4.738.686l-12 12a4 4 0 0 0 -1.172 2.829v44a4.005 4.005 0 0 0 1.5 3.124l40 32a4 4 0 0 0 5 0l40-32a4.005 4.005 0 0 0 1.5-3.124v-44a4 4 0 0 0 -1.172-2.829z" fill="#e6f9fe" data-original="#e6f9fe" style="" class=""/><path d="m25.5 55.124a4 4 0 0 1 -1.5-3.124v-44a4 4 0 0 1 1.172-2.828l2.42-2.42a25.424 25.424 0 0 1 -5.682-2.267 4 4 0 0 0 -4.738.686l-12 12a4 4 0 0 0 -1.172 2.829v44a4.005 4.005 0 0 0 1.5 3.124l40 32a4 4 0 0 0 5 0l12.5-10z" fill="#ccf2fe" data-original="#ccf2fe" style="" class=""/><path d="m78.828 18.142-2.905-2.9a4.006 4.006 0 0 0 -3.908-1.023 37.658 37.658 0 0 1 -22.684-.9 4 4 0 0 0 -2.662 0 37.659 37.659 0 0 1 -22.684.9 4.007 4.007 0 0 0 -3.908 1.023l-2.905 2.9a4 4 0 0 0 -1.172 2.829v33.261a4 4 0 0 0 1.5 3.124l28 22.4a4 4 0 0 0 5 0l28-22.4a4 4 0 0 0 1.5-3.124v-33.261a4 4 0 0 0 -1.172-2.829z" fill="url(#New_Gradient_Swatch_1)" data-original="url(#New_Gradient_Swatch_1)" style=""/><path d="m44 56a3.99 3.99 0 0 1 -2.828-1.171l-8-8 5.656-5.658 5.172 5.172 13.172-13.172 5.656 5.658-16 16a3.99 3.99 0 0 1 -2.828 1.171z" fill="#ffffff" data-original="#ffffff" style="" class=""/></g></g></g></svg>
