<?xml version="1.0"?>
<svg xmlns="http://www.w3.org/2000/svg" xmlns:xlink="http://www.w3.org/1999/xlink" xmlns:svgjs="http://svgjs.com/svgjs" version="1.1" width="512" height="512" x="0" y="0" viewBox="0 0 512.001 512.001" style="enable-background:new 0 0 512 512" xml:space="preserve" class=""><g>
<path xmlns="http://www.w3.org/2000/svg" style="" d="M176.802,30.333l-29.488,71.914l-90.91-90.91C95.327-8.583,144.218-2.251,176.802,30.333z" fill="#00863d" data-original="#4bb3a4" class=""/>
<path xmlns="http://www.w3.org/2000/svg" style="" d="M103.565,103.564L212.254,254.68l66.277-66.277l-72.174-72.174  c3.755-30.554-6.102-62.445-29.557-85.899L103.565,103.564z" fill="#00b050" data-original="#60d9ce" class=""/>
<path xmlns="http://www.w3.org/2000/svg" style="" d="M103.565,103.564l129.903,129.903l-45.071,45.071l-72.174-72.174  c-30.547,3.748-62.438-6.109-85.892-29.564C-2.254,144.215-8.582,95.333,11.337,56.407l69.692,69.692L103.565,103.564z" fill="#00863d" data-original="#4bb3a4" class=""/>
<path xmlns="http://www.w3.org/2000/svg" style="" d="M335.2,481.667l29.488-71.914l90.91,90.91C416.674,520.583,367.784,514.251,335.2,481.667z" fill="#00b050" data-original="#60d9ce" class=""/>
<path xmlns="http://www.w3.org/2000/svg" style="" d="M408.437,408.436L299.747,257.32l-66.277,66.277l72.174,72.174  c-3.755,30.554,6.102,62.445,29.557,85.899L408.437,408.436z" fill="#00863d" data-original="#4bb3a4" class=""/>
<path xmlns="http://www.w3.org/2000/svg" style="" d="M408.437,408.436L278.534,278.533l45.071-45.071l72.174,72.174  c30.547-3.748,62.438,6.109,85.892,29.564c32.583,32.583,38.912,81.466,18.993,120.392L430.972,385.9L408.437,408.436z" fill="#00b050" data-original="#60d9ce" class=""/>
<path xmlns="http://www.w3.org/2000/svg" style="" d="M486.783,25.217l11.267,11.267c18.59,18.59,18.59,49.011,0,67.601l-27.356,27.356l-73.352-45.067  L486.783,25.217z" fill="#ff6126" data-original="#ff6126" class=""/>
<path xmlns="http://www.w3.org/2000/svg" style="" d="M475.516,13.951l11.267,11.267l-75.299,75.299l-30.925-59.21l27.356-27.356  C426.505-4.64,456.926-4.64,475.516,13.951z" fill="#ff8151" data-original="#ff8151" class=""/>
<polygon xmlns="http://www.w3.org/2000/svg" style="" points="425.626,86.373 470.694,131.441 425.626,176.508 352.275,131.441 " fill="#a3fdf6" data-original="#a3fdf6" class=""/>
<polygon xmlns="http://www.w3.org/2000/svg" style="" points="380.559,41.306 425.627,86.374 366.417,145.583 335.492,86.374 " fill="#dbfffa" data-original="#dbfffa" class=""/>
<polygon xmlns="http://www.w3.org/2000/svg" style="" points="41.361,456.502 51.26,494.686 6.005,506 " fill="#000e0f" data-original="#000e0f" class=""/>
<polygon xmlns="http://www.w3.org/2000/svg" style="" points="17.319,460.745 34.29,477.715 6.005,506 " fill="#116371" data-original="#116371" class=""/>
<polygon xmlns="http://www.w3.org/2000/svg" style="" points="88.192,409.67 126.185,475.948 51.26,494.686 34.29,477.715 " fill="#ffa07d" data-original="#ffa07d" class=""/>
<polygon xmlns="http://www.w3.org/2000/svg" style="" points="36.05,385.813 81.121,430.884 34.29,477.715 17.319,460.745 " fill="#ffc0a8" data-original="#ffc0a8" class=""/>
<polygon xmlns="http://www.w3.org/2000/svg" style="" points="380.559,131.441 425.627,176.509 126.184,475.952 81.116,430.884 209.624,259.95 " fill="#090580" data-original="#ffd15e" class=""/>
<rect xmlns="http://www.w3.org/2000/svg" x="176.437" y="46.888" transform="matrix(0.7071 0.7071 -0.7071 0.7071 243.8874 -71.5435)" style="" width="63.734" height="423.476" fill="#070460" data-original="#ffea7c" class=""/>
<g xmlns="http://www.w3.org/2000/svg">
</g>
<g xmlns="http://www.w3.org/2000/svg">
</g>
<g xmlns="http://www.w3.org/2000/svg">
</g>
<g xmlns="http://www.w3.org/2000/svg">
</g>
<g xmlns="http://www.w3.org/2000/svg">
</g>
<g xmlns="http://www.w3.org/2000/svg">
</g>
<g xmlns="http://www.w3.org/2000/svg">
</g>
<g xmlns="http://www.w3.org/2000/svg">
</g>
<g xmlns="http://www.w3.org/2000/svg">
</g>
<g xmlns="http://www.w3.org/2000/svg">
</g>
<g xmlns="http://www.w3.org/2000/svg">
</g>
<g xmlns="http://www.w3.org/2000/svg">
</g>
<g xmlns="http://www.w3.org/2000/svg">
</g>
<g xmlns="http://www.w3.org/2000/svg">
</g>
<g xmlns="http://www.w3.org/2000/svg">
</g>
</g></svg>
