<?xml version="1.0"?>
<svg xmlns="http://www.w3.org/2000/svg" xmlns:xlink="http://www.w3.org/1999/xlink" xmlns:svgjs="http://svgjs.com/svgjs" version="1.1" width="512" height="512" x="0" y="0" viewBox="0 0 512 512" style="enable-background:new 0 0 512 512" xml:space="preserve" class=""><g><g xmlns="http://www.w3.org/2000/svg"><path d="m256 23.96 27 149.71-27 314.37c-11.54 0-21.74-6.49-26.62-16.95l-46.04-98.71h-148.34c-19.3 0-35-15.71-35-35v-278.42c0-19.29 15.7-35 35-35z" fill="#14bc44" data-original="#00dd80" style="" class=""/><path d="m512 58.96v278.42c0 19.29-15.7 35-35 35h-148.34l-46.04 98.71c-4.88 10.46-15.08 16.95-26.62 16.95v-464.08h221c19.3 0 35 15.71 35 35z" fill="#00b050" data-original="#00aa95" style="" class=""/><g><path d="m237.76 101.34-10.65 12.63-15.82 6.56c-13.932 5.758-19.064 22.829-10.68 35.32l8.69 12.95.89 16.85c.797 15.437 15.883 26.053 30.71 21.58l15.04-4.54.06.02 18-55.04-18-54.82c-7.05 0-13.69 3.09-18.24 8.49z" fill="#ffdd33" data-original="#ffee99" style="" class=""/></g><g><path d="m300.64 120.5-15.89-6.53-10.41-12.52c-4.53-5.44-11.18-8.57-18.26-8.6h-.08v109.86c16.077 4.804 17.557 5.55 22.04 5.55 12.391 0 23.197-9.749 23.78-22.8l.74-16.65 8.74-12.82c8.539-12.526 3.362-29.747-10.66-35.49z" fill="#ffbf3f" data-original="#ffcc66" style="" class=""/></g><g><path d="m388.119 302.482-15.225-4.559-15.039 4.54c-14.804 4.469-29.896-6.11-30.71-21.578l-.886-16.846-8.691-12.949c-8.402-12.519-3.223-29.572 10.681-35.327l15.823-6.552 10.649-12.638c9.575-11.368 27.089-11.291 36.576.118 0 .001.001.001.001.001l10.409 12.52 15.893 6.521c14.041 5.763 19.185 22.978 10.654 35.494l-8.732 12.816-.741 16.649c-.69 15.509-15.768 26.242-30.662 21.79zm14.569-92.092h.01z" fill="#ffbf3f" data-original="#ffcc66" style="" class=""/></g><g><path d="m154.201 302.482-15.225-4.559-15.039 4.54c-14.806 4.473-29.897-6.114-30.709-21.58l-.886-16.843-8.692-12.95c-8.401-12.518-3.223-29.571 10.681-35.327l15.824-6.552 10.648-12.638c4.436-5.267 10.998-8.482 18.314-8.482 11.932.038 18.263 8.602 18.263 8.602l10.409 12.52 15.893 6.521c14.036 5.759 19.185 22.976 10.656 35.492l-8.733 12.816-.742 16.652c-.692 15.541-15.804 26.229-30.662 21.788zm14.569-92.092h.01z" fill="#ffdd33" data-original="#ffee99" style="" class=""/></g></g></g></svg>
