<?xml version="1.0"?>
<svg xmlns="http://www.w3.org/2000/svg" xmlns:xlink="http://www.w3.org/1999/xlink" xmlns:svgjs="http://svgjs.com/svgjs" version="1.1" width="512" height="512" x="0" y="0" viewBox="0 0 512 512" style="enable-background:new 0 0 512 512" xml:space="preserve" class=""><g><g xmlns="http://www.w3.org/2000/svg"><g><circle cx="256" cy="316.794" fill="#060367" r="186.497" data-original="#00d2fc" style="" class=""/><path d="m159.661 316.794c0-87.454 60.2-160.836 141.418-180.999-14.437-3.584-29.534-5.498-45.079-5.498-103 0-186.497 83.497-186.497 186.497s83.497 186.498 186.497 186.498c15.546 0 30.642-1.914 45.079-5.498-81.218-20.163-141.418-93.546-141.418-181z" fill="#030130" data-original="#00c2fb" style="" class=""/><path d="m451.206 316.794c0-107.567-87.329-195.206-195.206-195.206-107.834 0-195.206 87.54-195.206 195.206 0 108.273 88.08 195.206 195.206 195.206 106.976 0 195.206-86.838 195.206-195.206zm-139.34 168.778c17.195-17.813 29.613-41.95 37.844-65.607 12.04 5.477 23.647 12.035 34.712 19.654-20.029 20.933-44.896 36.797-72.556 45.953zm-184.288-45.953c11.065-7.619 22.672-14.176 34.712-19.654 8.236 23.67 20.656 47.801 37.844 65.607-27.751-9.186-52.596-25.092-72.556-45.953zm-49.151-114.116h67.61c.664 27.355 4.447 53.717 11.045 77.702-14.265 6.335-27.973 14.082-40.978 23.189-22.05-28.084-35.838-62.946-37.677-100.891zm37.677-118.308c13.005 9.108 26.713 16.854 40.978 23.189-6.598 23.985-10.381 50.347-11.045 77.702h-67.61c1.839-37.945 15.627-72.807 37.677-100.891zm84.03-59.179c-17.195 17.813-29.613 41.95-37.844 65.607-12.04-5.477-23.647-12.035-34.712-19.654 19.568-20.45 44.277-36.592 72.556-45.953zm184.288 45.954c-11.065 7.619-22.672 14.176-34.712 19.654-8.236-23.67-20.656-47.801-37.844-65.607 27.871 9.225 52.678 25.178 72.556 45.953zm49.151 114.116h-67.61c-.664-27.355-4.447-53.717-11.045-77.702 14.266-6.335 27.973-14.082 40.978-23.189 22.05 28.084 35.838 62.946 37.677 100.891zm-168.865 185.693v-93.813c23.794.888 46.94 5.427 68.869 13.407-11.348 32.996-34.408 74.041-68.869 80.406zm-86.286-80.406c21.93-7.98 45.075-12.519 68.869-13.407v93.813c-34.452-6.363-57.515-47.393-68.869-80.406zm68.87-273.563v93.813c-23.794-.888-46.939-5.427-68.869-13.407 11.348-32.996 34.408-74.041 68.869-80.406zm86.286 80.406c-21.93 7.98-45.075 12.519-68.869 13.407v-93.813c34.452 6.363 57.515 47.393 68.869 80.406zm-86.286 30.826v57.044h-83.835c.637-25.09 4.026-49.208 9.891-71.172 23.557 8.468 48.408 13.243 73.944 14.128zm0 74.461v57.044c-25.535.885-50.387 5.66-73.944 14.129-5.865-21.964-9.255-46.083-9.891-71.172h83.835zm17.416 57.043v-57.044h83.835c-.637 25.09-4.026 49.208-9.891 71.172-23.557-8.467-48.408-13.242-73.944-14.128zm0-74.46v-57.044c25.535-.885 50.387-5.66 73.944-14.129 5.865 21.964 9.255 46.083 9.891 71.172h-83.835zm90.21 95.119c6.598-23.985 10.381-50.347 11.045-77.702h67.61c-1.839 37.945-15.627 72.807-37.677 100.891-13.005-9.108-26.713-16.854-40.978-23.189z" fill="#ffffff" data-original="#62ddfc" style="" class=""/></g><path d="m341.795.009c-49.64.692-90.092 41.311-90.59 90.953-.397 39.538 24.177 73.387 58.916 86.75 3.904 1.501 7.08 4.445 8.847 8.236l18.454 39.599c2.251 4.829 9.118 4.829 11.369 0l18.453-39.597c1.769-3.796 4.953-6.738 8.861-8.242 34.456-13.26 58.908-46.673 58.908-85.801 0-51.196-41.859-92.614-93.218-91.898z" fill="#009c47" data-original="#f78b98" style="" class=""/><path d="m360.243 185.948c-1.767-3.791-4.943-6.735-8.847-8.236-34.74-13.363-59.313-47.212-58.916-86.75.432-43.029 30.884-79.272 71.315-88.617-7.058-1.624-14.424-2.442-22-2.336-49.64.692-90.092 41.311-90.59 90.953-.397 39.538 24.177 73.387 58.916 86.75 3.904 1.501 7.08 4.445 8.847 8.236l18.454 39.599c2.251 4.829 9.118 4.829 11.368 0l14.953-32.085z" fill="#00b050" data-original="#f27182" style="" class=""/><ellipse cx="343.107" cy="91.906" fill="#006e32" rx="55.593" ry="55.594" transform="matrix(.23 -.973 .973 .23 174.83 404.719)" data-original="#ed5469" style="" class=""/><path d="m328.787 91.906c0-23.408 14.475-43.423 34.956-51.62-6.383-2.554-13.342-3.974-20.637-3.974-30.703 0-55.594 24.89-55.594 55.593s24.89 55.594 55.594 55.594c7.295 0 14.254-1.419 20.637-3.974-20.481-8.195-34.956-28.21-34.956-51.619z" fill="#056832" data-original="#e63850" style="" class=""/></g></g></svg>
